<svg xml:space="preserve" viewBox="0 0 16 16" height="16px" width="16px" y="0px" x="0px" xmlns:xlink="http://www.w3.org/1999/xlink" xmlns="http://www.w3.org/2000/svg" id="Layer_1" version="1.1">
  <g id="icon">
    <path stroke-miterlimit="1" stroke-linecap="round" stroke-width="0.8" stroke="#383838" fill="#C8C6C4" d="M12.997,6.1c0.81,-0.474,2.365,-1.873,2.365,-1.873L11.883,0.651c0,0,-1.407,1.567,-1.974,2.361"></path>
    <path stroke-miterlimit="1" stroke-width="0.8" stroke="#383838" fill="#FFFFFF" d="M9.909,3.012c-0.072,0.048,-1.822,1.179,-3.232,2.033l-0.201,0.122l0.044,0.232c0.037,0.196,0.056,0.419,0.056,0.662c0,1.451,-0.612,3.396,-1.03,3.817c-0.3,0.303,-0.446,0.546,-0.446,0.743c0,0.036,0.005,0.071,0.014,0.106c0.035,0.133,0.033,0.131,0.165,0.167c0.139,0.037,0.377,0.09,0.841,-0.378c0.485,-0.49,3.072,-1.316,4.437,-1.041l0.232,0.047l0.122,-0.204c0.849,-1.427,2.075,-3.2,2.086,-3.217L9.909,3.012z"></path>
    <path stroke-miterlimit="1" stroke-linecap="round" stroke-width="0.8" stroke="#383838" fill="#C8C6C4" d="M5.277,10.731l2.999,-2.608c0.29,0.146,0.649,0.096,0.89,-0.151c0.303,-0.31,0.303,-0.814,0,-1.124c-0.303,-0.31,-0.794,-0.31,-1.097,0c-0.241,0.247,-0.29,0.616,-0.147,0.913L5.277,10.731z"></path>
    <path stroke-miterlimit="1" stroke-width="1" stroke="#383838" fill="none" d="M1.5,12V4M12,14.5H4"></path>
    <circle fill="#EF3E3B" r="1.5" cy="1.5" cx="1.5"></circle>
    <circle fill="#EF3E3B" r="1.5" cy="14.5" cx="14.5"></circle>
    <circle fill="#EF3E3B" r="1.5" cy="14.5" cx="1.5"></circle>
  </g>
</svg>
